/vscmnt/brussel_pixiu_data/_data_brussel/112/vsc11236/PredSimResults/SUBJ06mtu3D/worker4.mot
version=1
nRows=7
nColumns=50
inDegrees=yes
endheader
                time	         pelvis_tilt	         pelvis_list	     pelvis_rotation	           pelvis_tx	           pelvis_ty	           pelvis_tz	       hip_flexion_r	     hip_adduction_r	      hip_rotation_r	        knee_angle_r	       ankle_angle_r	         mtp_angle_r	       hip_flexion_l	     hip_adduction_l	      hip_rotation_l	        knee_angle_l	       ankle_angle_l	         mtp_angle_l	    lumbar_extension	      lumbar_bending	     lumbar_rotation	 ercspn_r/activation	 intobl_r/activation	 extobl_r/activation	    abd_r/activation	    add_r/activation	hamstrings_r/activation	bifemsh_r/activation	glut_max_r/activation	iliopsoas_r/activation	rect_fem_r/activation	  vasti_r/activation	gastroc_r/activation	 soleus_r/activation	tib_ant_r/activation	 ercspn_l/activation	 intobl_l/activation	 extobl_l/activation	    abd_l/activation	    add_l/activation	hamstrings_l/activation	bifemsh_l/activation	glut_max_l/activation	iliopsoas_l/activation	rect_fem_l/activation	  vasti_l/activation	gastroc_l/activation	 soleus_l/activation	tib_ant_l/activation	
          0.00000000	         -6.50799192	         -0.83754864	          3.81131624	          0.00000000	          0.93300850	         -0.01108545	         31.26443812	         -0.86985597	         -3.42178464	         -5.53090073	          1.65769227	          0.21981603	        -11.25322055	         -0.41126988	         -4.52283738	         -8.04341886	          5.93917696	         34.34649737	         -5.33281871	         -0.35407291	         -4.88840882	          0.18057715	          0.13791303	          0.00999999	          0.00999999	          0.23261179	          0.15822639	          0.20748308	          0.02540310	          0.14260136	          0.00999999	          0.00999999	          0.02414860	          0.00999999	          0.39622397	          0.09040680	          0.00999999	          0.00999999	          0.07688839	          0.00999999	          0.00999999	          0.15375908	          0.03562488	          0.52511115	          0.02573070	          0.00999999	          0.37039448	          0.30153569	          0.02129911	
          0.01248392	         -6.60832396	         -0.75084660	          3.85840289	          0.01677694	          0.93121839	         -0.01002108	         31.44194047	         -0.75672813	         -3.57293103	         -7.23302558	          1.32746336	          0.22300478	        -11.54512048	         -0.48371325	         -4.93999406	         -9.13295817	          5.05265190	         36.17527114	         -5.00321954	         -0.11348003	         -5.37669888	          0.16541937	          0.11416025	          0.00999999	          0.00999999	          0.33193434	          0.14500816	          0.17174823	          0.08525819	          0.11804110	          0.00999999	          0.00999999	          0.01998948	          0.01459420	          0.41157053	          0.13387123	          0.00999999	          0.00999999	          0.06364589	          0.00999999	          0.01000023	          0.12727713	          0.03108437	          0.52862468	          0.02129910	          0.02129910	          0.34099697	          0.28795036	          0.01763076	
          0.02496784	         -6.68510478	         -0.70303405	          3.88612059	          0.03403804	          0.92961444	         -0.00890186	         31.35966095	         -0.69058371	         -3.54699389	         -8.83695429	          1.03666501	          0.19381164	        -11.69163486	         -0.62731586	         -5.35456394	        -10.56260615	          4.05783607	         38.04088180	         -4.64188316	          0.17842519	         -5.83553943	          0.13698798	          0.09449841	          0.00999999	          0.03712613	          0.27476523	          0.13849882	          0.14216800	          0.10310303	          0.09771086	          0.00999999	          0.00999999	          0.01654669	          0.01208064	          0.47277420	          0.11974560	          0.00999999	          0.00999999	          0.05268414	          0.00999999	          0.01000001	          0.10535616	          0.02573070	          0.51790847	          0.01763075	          0.01763075	          0.30794927	          0.26754359	          0.01459421	
          0.03745176	         -6.74067984	         -0.67300615	          3.88388522	          0.05150989	          0.92830754	         -0.00765032	         31.10192717	         -0.61955760	         -3.59430325	        -10.16193912	          0.59241447	          0.18419247	        -11.59313666	         -0.83003673	         -5.77714075	        -12.47553859	          2.93558501	         39.91859208	         -4.28475132	          0.48672538	         -6.25266439	          0.15530466	          0.07822293	          0.00999999	          0.08697234	          0.28426805	          0.12344650	          0.11768238	          0.14334262	          0.08088210	          0.00999999	          0.00999999	          0.01369685	          0.00999999	          0.53831237	          0.12542030	          0.00999999	          0.00999999	          0.04361034	          0.00999999	          0.01000001	          0.08721065	          0.02129910	          0.49129511	          0.01459420	          0.01459420	          0.25491111	          0.24650567	          0.01208065	
          0.04993568	         -6.77405107	         -0.65845231	          3.85464637	          0.06896573	          0.92739147	         -0.00628790	         30.77628936	         -0.53448732	         -3.71455111	        -11.38573027	          0.10121317	          0.15999996	        -11.18083695	         -1.09772439	         -6.21277083	        -14.96209593	          1.65930263	         41.72460625	         -3.95793637	          0.81106727	         -6.62156315	          0.15339070	          0.06475058	          0.00999999	          0.13299185	          0.28919535	          0.11652476	          0.09741392	          0.15805399	          0.06695176	          0.00999999	          0.04789255	          0.01133784	          0.00999999	          0.58412276	          0.15640260	          0.00999999	          0.00999999	          0.03609933	          0.00999999	          0.02337032	          0.07219034	          0.01763075	          0.44465577	          0.01208064	          0.01208064	          0.21100772	          0.21122733	          0.01000000	
          0.06241960	         -6.78589909	         -0.67685113	          3.80744602	          0.08623009	          0.92697972	         -0.00484013	         30.42081632	         -0.41032901	         -3.83859240	        -12.60912159	         -0.14677069	          0.12382507	        -10.42103038	         -1.45722709	         -6.66022916	        -18.04387512	          0.21251311	         43.24734871	         -3.67486654	          1.16994357	         -6.94426687	          0.14412905	          0.05359857	          0.00999999	          0.16723360	          0.26267771	          0.10632165	          0.08063630	          0.17303115	          0.05542064	          0.00999999	          0.10634244	          0.00999999	          0.00999999	          0.61058740	          0.19008080	          0.00999999	          0.00999999	          0.02988193	          0.06577975	          0.03782448	          0.05975699	          0.01459420	          0.38537096	          0.00999999	          0.00999999	          0.17466582	          0.17484761	          0.00999999	
          0.07490351	         -6.77874516	         -0.73389461	          3.74753411	          0.10315006	          0.92720047	         -0.00333345	         30.02420329	         -0.23176469	         -3.90878267	        -13.82350756	          0.02298931	          0.09303527	         -9.31124187	         -1.91953482	         -7.13588290	        -21.68461219	         -1.36305867	         44.07876644	         -3.44537638	          1.56682759	         -7.22307328	          0.14067812	          0.04436728	          0.00999999	          0.19378367	          0.23445882	          0.09784355	          0.06674830	          0.17248261	          0.04587554	          0.00999999	          0.16124658	          0.00999999	          0.00999999	          0.56901680	          0.21715293	          0.00999999	          0.00999999	          0.02473536	          0.11074252	          0.03130997	          0.05157456	          0.01208064	          0.31899844	          0.00999999	          0.00999999	          0.14458309	          0.14473357	          0.00999999	
